# Blender 4.1.1
# www.blender.org
mtllib Dagger.mtl
o Cube
v -7.120422 0.000000 0.000000
v -2.084580 -0.638355 -0.231688
v -2.084580 0.638355 0.231688
v -2.084580 -0.638355 0.231688
v -5.120422 -0.638355 0.231688
v -5.120422 0.638355 0.231688
v -5.120422 -0.638355 -0.231688
v -5.120422 0.638355 -0.231688
v -2.084580 0.638355 -0.231688
v -2.002055 -0.834481 -0.302871
v -2.002055 0.834481 0.302871
v -2.002055 -0.834481 0.302871
v -2.002055 0.834481 -0.302871
v -1.758330 -0.834481 -0.302871
v -1.758330 0.834481 0.302871
v -1.758330 -0.834481 0.302871
v -1.758330 0.834481 -0.302871
v -1.636243 -0.394109 -0.143040
v -1.636243 0.394109 0.143040
v -1.636243 -0.394109 0.143040
v -1.636243 0.394109 -0.143040
v 0.002719 -0.186053 -0.067527
v 0.002719 0.186053 0.067527
v 0.002719 -0.186053 0.067527
v 0.002719 0.186053 -0.067527
vn -0.0000 -1.0000 -0.0000
vn -0.1151 -0.0000 -0.9934
vn -0.0000 -0.0000 1.0000
vn -0.1151 -0.0000 0.9934
vn -0.3041 -0.9527 -0.0000
vn -0.3041 0.9527 -0.0000
vn -0.9217 0.3878 -0.0000
vn -0.0000 1.0000 -0.0000
vn -0.0000 -0.0000 -1.0000
vn -0.6532 -0.0000 -0.7572
vn -0.6532 -0.0000 0.7572
vn -0.9217 -0.3878 -0.0000
vn 0.7947 -0.0000 -0.6070
vn 0.1259 -0.9920 -0.0000
vn 0.9637 0.2672 -0.0000
vn 0.9637 -0.2672 -0.0000
vn 0.7947 -0.0000 0.6070
vn 1.0000 -0.0000 -0.0000
vn 0.0460 -0.0000 0.9989
vn 0.0460 -0.0000 -0.9989
vn 0.1259 0.9920 -0.0000
vt 0.375000 0.750000
vt 0.375000 0.500000
vt 0.625000 0.250000
vt 0.625000 0.500000
vt 0.625000 0.750000
vt 0.375000 1.000000
vt 0.125000 0.500000
vt 0.875000 0.750000
s 0
f 5/1/1 7/2/1 2/2/1 4/1/1
f 1/3/2 8/4/2 7/2/2
f 6/5/3 5/1/3 4/1/3 3/5/3
f 5/1/4 6/5/4 1/6/4
f 1/7/5 7/2/5 5/1/5
f 8/4/6 1/8/6 6/5/6
f 9/4/7 3/5/7 11/5/7 13/4/7
f 8/4/8 6/5/8 3/5/8 9/4/8
f 7/2/9 8/4/9 9/4/9 2/2/9
f 12/1/1 10/2/1 14/2/1 16/1/1
f 2/2/10 9/4/10 13/4/10 10/2/10
f 3/5/11 4/1/11 12/1/11 11/5/11
f 4/1/12 2/2/12 10/2/12 12/1/12
f 14/2/13 17/4/13 21/4/13 18/2/13
f 11/5/3 12/1/3 16/1/3 15/5/3
f 10/2/9 13/4/9 17/4/9 14/2/9
f 13/4/8 11/5/8 15/5/8 17/4/8
f 20/1/14 18/2/14 22/2/14 24/1/14
f 17/4/15 15/5/15 19/5/15 21/4/15
f 16/1/16 14/2/16 18/2/16 20/1/16
f 15/5/17 16/1/17 20/1/17 19/5/17
f 22/2/18 25/4/18 23/5/18 24/1/18
f 19/5/19 20/1/19 24/1/19 23/5/19
f 18/2/20 21/4/20 25/4/20 22/2/20
f 21/4/21 19/5/21 23/5/21 25/4/21
